<svg class="sprite-svg" xmlns="http://www.w3.org/2000/svg">

	<symbol id="icon-circle"  x="0px" y="0px" width="43px" height="23.56px" viewBox="0 0 43 23.56" enable-background="new 0 0 43 23.56" xml:space="preserve">
		<g>
			<defs>
				<rect id="SVGID_1_" width="43" height="23.56"/>
			</defs>
			<use xlink:href="#SVGID_1_"  overflow="visible" fill="#FFFFFF"/>
			<clipPath id="SVGID_2_">
				<use xlink:href="#SVGID_1_"  overflow="visible"/>
			</clipPath>
			<path clip-path="url(#SVGID_2_)" fill="#FFFFFF" d="M3.099,18.388H0c0-7.895,1.949-9.364,6.089-10.657
				c1.318-0.409,2.814-0.873,4.503-1.943c1.295-0.819,2.52-1.568,3.678-2.238c4.078-2.345,6.917-3.35,9.49-3.35
				c0.98,0,2.003-0.045,3.036-0.095c4.288-0.205,9.151-0.438,12.489,2.748C41.786,5.236,43,9.132,43,14.758h-3.099
				c0-4.733-0.899-7.894-2.751-9.665c-2.38-2.269-6.356-2.073-10.208-1.893c-1.084,0.05-2.153,0.098-3.182,0.098
				c-1.964,0-4.413,0.905-7.943,2.938c-1.124,0.647-2.313,1.379-3.569,2.173c-2.038,1.285-3.813,1.837-5.238,2.28
				C4.166,11.578,3.099,11.909,3.099,18.388"/>
			<path clip-path="url(#SVGID_2_)" fill="#FFFFFF" d="M11.422,23.56c-2.851,0-5.172-2.322-5.172-5.172
				c0-2.858,2.321-5.176,5.172-5.176c2.854,0,5.175,2.317,5.175,5.176C16.597,21.237,14.276,23.56,11.422,23.56 M11.422,16.308
				c-1.144,0-2.073,0.933-2.073,2.08c0,1.141,0.929,2.073,2.073,2.073c1.147,0,2.076-0.933,2.076-2.073
				C13.498,17.24,12.569,16.308,11.422,16.308"/>
			<path clip-path="url(#SVGID_2_)" fill="#FFFFFF" d="M33.328,23.56c-2.854,0-5.177-2.322-5.177-5.172
				c0-2.858,2.322-5.176,5.177-5.176c2.854,0,5.175,2.317,5.175,5.176C38.503,21.237,36.182,23.56,33.328,23.56 M33.328,16.308
				c-1.148,0-2.077,0.933-2.077,2.08c0,1.141,0.929,2.073,2.077,2.073c1.146,0,2.075-0.933,2.075-2.073
				C35.403,17.24,34.475,16.308,33.328,16.308"/>
		</g>
	</symbol>

	<symbol id="icon-people"></symbol>

</svg>